<mxfile host="app.diagrams.net" modified="2022-08-10T07:05:55.524Z" agent="5.0 (Windows NT 10.0; Win64; x64) AppleWebKit/537.36 (KHTML, like Gecko) Chrome/104.0.5112.81 Safari/537.36 Edg/104.0.1293.47" etag="bieQoEnXHkSajueKE1AD" version="20.2.3" type="github">
  <diagram name="Page-1" id="0783ab3e-0a74-02c8-0abd-f7b4e66b4bec">
    <mxGraphModel dx="1185" dy="770" grid="1" gridSize="10" guides="1" tooltips="1" connect="1" arrows="1" fold="1" page="1" pageScale="1" pageWidth="850" pageHeight="1100" background="none" math="0" shadow="0">
      <root>
        <mxCell id="0" />
        <mxCell id="1" parent="0" />
        <mxCell id="1c1d494c118603dd-1" value="Code Review Process" style="swimlane;html=1;childLayout=stackLayout;startSize=20;rounded=0;shadow=0;comic=0;labelBackgroundColor=none;strokeWidth=1;fontFamily=Verdana;fontSize=12;align=center;" parent="1" vertex="1">
          <mxGeometry x="40" y="20" width="700" height="780" as="geometry" />
        </mxCell>
        <mxCell id="NRtrJIy5ohnwvk667oF4-37" value="" style="endArrow=classic;html=1;rounded=0;fontSize=11;exitX=0.5;exitY=1;exitDx=0;exitDy=0;entryX=0;entryY=0.5;entryDx=0;entryDy=0;edgeStyle=orthogonalEdgeStyle;" edge="1" parent="1c1d494c118603dd-1" source="NRtrJIy5ohnwvk667oF4-33" target="NRtrJIy5ohnwvk667oF4-34">
          <mxGeometry width="50" height="50" relative="1" as="geometry">
            <mxPoint x="370" y="380" as="sourcePoint" />
            <mxPoint x="420" y="330" as="targetPoint" />
          </mxGeometry>
        </mxCell>
        <mxCell id="NRtrJIy5ohnwvk667oF4-39" value="" style="endArrow=classic;html=1;rounded=0;fontSize=11;entryX=1;entryY=0.5;entryDx=0;entryDy=0;exitX=0.5;exitY=1;exitDx=0;exitDy=0;edgeStyle=orthogonalEdgeStyle;" edge="1" parent="1c1d494c118603dd-1" source="NRtrJIy5ohnwvk667oF4-34" target="NRtrJIy5ohnwvk667oF4-38">
          <mxGeometry width="50" height="50" relative="1" as="geometry">
            <mxPoint x="370" y="410" as="sourcePoint" />
            <mxPoint x="420" y="360" as="targetPoint" />
          </mxGeometry>
        </mxCell>
        <mxCell id="1c1d494c118603dd-2" value="Source Code Author" style="swimlane;html=1;startSize=20;" parent="1c1d494c118603dd-1" vertex="1">
          <mxGeometry y="20" width="350" height="760" as="geometry" />
        </mxCell>
        <mxCell id="NRtrJIy5ohnwvk667oF4-13" style="edgeStyle=orthogonalEdgeStyle;rounded=0;orthogonalLoop=1;jettySize=auto;html=1;exitX=0.5;exitY=1;exitDx=0;exitDy=0;fontSize=11;entryX=0.5;entryY=0;entryDx=0;entryDy=0;" edge="1" parent="1c1d494c118603dd-2" source="NRtrJIy5ohnwvk667oF4-10" target="NRtrJIy5ohnwvk667oF4-32">
          <mxGeometry relative="1" as="geometry">
            <mxPoint x="130" y="150" as="targetPoint" />
          </mxGeometry>
        </mxCell>
        <mxCell id="NRtrJIy5ohnwvk667oF4-10" value="" style="ellipse;whiteSpace=wrap;html=1;rounded=0;shadow=0;comic=0;labelBackgroundColor=none;strokeWidth=1;fillColor=#000000;fontFamily=Verdana;fontSize=12;align=center;" vertex="1" parent="1c1d494c118603dd-2">
          <mxGeometry x="152.5" y="40" width="40" height="40" as="geometry" />
        </mxCell>
        <mxCell id="NRtrJIy5ohnwvk667oF4-27" value="" style="endArrow=classic;html=1;rounded=0;fontSize=11;entryX=0.5;entryY=0;entryDx=0;entryDy=0;" edge="1" parent="1c1d494c118603dd-2" source="NRtrJIy5ohnwvk667oF4-32" target="NRtrJIy5ohnwvk667oF4-33">
          <mxGeometry width="50" height="50" relative="1" as="geometry">
            <mxPoint x="128.2758620689658" y="250" as="sourcePoint" />
            <mxPoint x="126.89655172413813" y="290" as="targetPoint" />
          </mxGeometry>
        </mxCell>
        <mxCell id="NRtrJIy5ohnwvk667oF4-32" value="&lt;b&gt;Pick Jira Card for development&lt;/b&gt;&lt;br&gt;&lt;div style=&quot;text-align: left;&quot;&gt;&lt;ol&gt;&lt;li&gt;&lt;span style=&quot;background-color: initial;&quot;&gt;Assign card to self&lt;/span&gt;&lt;/li&gt;&lt;li&gt;&lt;span style=&quot;background-color: initial;&quot;&gt;Move card&amp;nbsp; to &#39;IN PROGRESS&#39; column&lt;/span&gt;&lt;/li&gt;&lt;/ol&gt;&lt;/div&gt;" style="rounded=0;whiteSpace=wrap;html=1;shadow=0;comic=0;labelBackgroundColor=none;strokeWidth=1;fontFamily=Verdana;fontSize=12;align=center;arcSize=50;spacing=0;" vertex="1" parent="1c1d494c118603dd-2">
          <mxGeometry x="22.5" y="120" width="300" height="80" as="geometry" />
        </mxCell>
        <mxCell id="NRtrJIy5ohnwvk667oF4-33" value="&lt;b&gt;Request Code Review&lt;/b&gt;&lt;br&gt;&lt;div style=&quot;text-align: left;&quot;&gt;&lt;ol&gt;&lt;li&gt;&lt;span style=&quot;background-color: initial;&quot;&gt;Create PR in GitHub&lt;/span&gt;&lt;/li&gt;&lt;li&gt;&lt;span style=&quot;background-color: initial;&quot;&gt;Move card&amp;nbsp; to &#39;IN REVIEW&#39; column&lt;/span&gt;&lt;/li&gt;&lt;li&gt;&lt;span style=&quot;background-color: initial;&quot;&gt;Paste the PR URL in Jira&lt;/span&gt;&lt;/li&gt;&lt;li&gt;Unassign the card&lt;/li&gt;&lt;/ol&gt;&lt;/div&gt;" style="rounded=0;whiteSpace=wrap;html=1;shadow=0;comic=0;labelBackgroundColor=none;strokeWidth=1;fontFamily=Verdana;fontSize=12;align=center;arcSize=50;spacing=0;" vertex="1" parent="1c1d494c118603dd-2">
          <mxGeometry x="22.5" y="260" width="300" height="106" as="geometry" />
        </mxCell>
        <mxCell id="NRtrJIy5ohnwvk667oF4-38" value="&lt;b&gt;Resolve Jira Card&lt;/b&gt;&lt;br&gt;&lt;div style=&quot;text-align: left;&quot;&gt;&lt;ol&gt;&lt;li&gt;&lt;span style=&quot;background-color: initial;&quot;&gt;Merge source code&lt;/span&gt;&lt;/li&gt;&lt;li&gt;&lt;span style=&quot;background-color: initial;&quot;&gt;Move card&amp;nbsp; to &#39;READY FOR TEST&#39; column&lt;/span&gt;&lt;/li&gt;&lt;li&gt;Unassign the card&lt;/li&gt;&lt;/ol&gt;&lt;/div&gt;" style="rounded=0;whiteSpace=wrap;html=1;shadow=0;comic=0;labelBackgroundColor=none;strokeWidth=1;fontFamily=Verdana;fontSize=12;align=center;arcSize=50;spacing=0;" vertex="1" parent="1c1d494c118603dd-2">
          <mxGeometry x="22.5" y="520" width="300" height="106" as="geometry" />
        </mxCell>
        <mxCell id="NRtrJIy5ohnwvk667oF4-40" value="" style="shape=mxgraph.bpmn.shape;html=1;verticalLabelPosition=bottom;labelBackgroundColor=#ffffff;verticalAlign=top;perimeter=ellipsePerimeter;outline=end;symbol=terminate;rounded=0;shadow=0;comic=0;strokeWidth=1;fontFamily=Verdana;fontSize=12;align=center;" vertex="1" parent="1c1d494c118603dd-2">
          <mxGeometry x="140" y="676" width="40" height="40" as="geometry" />
        </mxCell>
        <mxCell id="NRtrJIy5ohnwvk667oF4-42" value="" style="endArrow=classic;html=1;rounded=0;fontSize=11;exitX=0.461;exitY=0.998;exitDx=0;exitDy=0;exitPerimeter=0;entryX=0.5;entryY=0;entryDx=0;entryDy=0;" edge="1" parent="1c1d494c118603dd-2" source="NRtrJIy5ohnwvk667oF4-38" target="NRtrJIy5ohnwvk667oF4-40">
          <mxGeometry width="50" height="50" relative="1" as="geometry">
            <mxPoint x="370" y="630" as="sourcePoint" />
            <mxPoint x="420" y="580" as="targetPoint" />
          </mxGeometry>
        </mxCell>
        <mxCell id="1c1d494c118603dd-3" value="Code Reviewer" style="swimlane;html=1;startSize=20;" parent="1c1d494c118603dd-1" vertex="1">
          <mxGeometry x="350" y="20" width="350" height="760" as="geometry" />
        </mxCell>
        <mxCell id="NRtrJIy5ohnwvk667oF4-34" value="&lt;b&gt;Pick Jira Card for review&lt;/b&gt;&lt;br&gt;&lt;div style=&quot;text-align: left;&quot;&gt;&lt;ol&gt;&lt;li&gt;&lt;span style=&quot;background-color: initial;&quot;&gt;Assign card to self&lt;/span&gt;&lt;/li&gt;&lt;li&gt;Review the code&lt;/li&gt;&lt;li&gt;Work together with the author to refine the code&lt;/li&gt;&lt;li&gt;Approve the PR&lt;/li&gt;&lt;/ol&gt;&lt;/div&gt;" style="rounded=0;whiteSpace=wrap;html=1;shadow=0;comic=0;labelBackgroundColor=none;strokeWidth=1;fontFamily=Verdana;fontSize=12;align=center;arcSize=50;spacing=0;" vertex="1" parent="1c1d494c118603dd-3">
          <mxGeometry x="25" y="380" width="300" height="110" as="geometry" />
        </mxCell>
      </root>
    </mxGraphModel>
  </diagram>
</mxfile>
